<svg width="18" height="16" fill="none" xmlns="http://www.w3.org/2000/svg"><path fill-rule="evenodd" clip-rule="evenodd" d="M12.6 1.5c2.222 0 3.9 1.641 3.9 3.733 0 1.292-.596 2.507-1.76 3.87-1.168 1.367-2.853 2.82-4.94 4.597l-.8.654-.8-.654c-2.087-1.776-3.772-3.23-4.94-4.597C2.096 7.74 1.5 6.525 1.5 5.233 1.5 3.14 3.178 1.5 5.4 1.5c1.218 0 2.44.555 3.225 1.446a.5.5 0 00.75 0C10.16 2.055 11.382 1.5 12.6 1.5zm4.9 3.733C17.5 2.553 15.338.5 12.6.5c-1.32 0-2.638.523-3.6 1.403A5.413 5.413 0 005.4.5C2.662.5.5 2.553.5 5.233c0 1.632.764 3.072 2 4.52 1.23 1.44 2.985 2.949 5.056 4.711l.007.007 1.12.916a.5.5 0 00.634 0l1.127-.923c2.071-1.762 3.825-3.27 5.056-4.712 1.236-1.447 2-2.887 2-4.52z" fill="#fff"/></svg>