<svg width="18" height="16" viewBox="0 0 18 16" fill="none" xmlns="http://www.w3.org/2000/svg">
<path fill-rule="evenodd" clip-rule="evenodd" d="M12.6 1.5C14.8223 1.5 16.5 3.1413 16.5 5.23292C16.5 6.52516 15.9037 7.7403 14.7398 9.10257C13.5716 10.47 11.8866 11.9236 9.79962 13.6997L9 14.3539L8.20039 13.6997C6.1134 11.9236 4.4284 10.47 3.26015 9.10257C2.09628 7.7403 1.5 6.52516 1.5 5.23292C1.5 3.1413 3.17772 1.5 5.4 1.5C6.61763 1.5 7.84038 2.05486 8.62456 2.94642C8.71949 3.05435 8.85627 3.11621 9 3.11621C9.14373 3.11621 9.28051 3.05435 9.37544 2.94642C10.1596 2.05486 11.3824 1.5 12.6 1.5ZM17.5 5.23292C17.5 2.55288 15.3377 0.5 12.6 0.5C11.2791 0.5 9.96209 1.023 9 1.90341C8.03791 1.023 6.72094 0.5 5.4 0.5C2.66228 0.5 0.5 2.55288 0.5 5.23292C0.5 6.86524 1.26372 8.30529 2.49985 9.75214C3.73091 11.1931 5.48463 12.7016 7.55595 14.4643L7.56331 14.4706L8.68337 15.387C8.86755 15.5377 9.13245 15.5377 9.31663 15.387L10.4441 14.4644C12.5154 12.7017 14.2691 11.1931 15.5002 9.75214C16.7363 8.30529 17.5 6.86524 17.5 5.23292Z" fill="white"/>
</svg>
