<svg width="20" height="20" viewBox="0 0 20 20" fill="none" xmlns="http://www.w3.org/2000/svg">
<path fill-rule="evenodd" clip-rule="evenodd" d="M6.5 5.5V5C6.5 3.067 8.067 1.5 10 1.5C11.933 1.5 13.5 3.067 13.5 5V5.5H16C16.2511 5.5 16.4633 5.6863 16.4958 5.93533L17.9958 17.4353C18.0144 17.578 17.9707 17.7218 17.8757 17.8299C17.7808 17.938 17.6439 18 17.5 18H2.5C2.35612 18 2.21921 17.938 2.12428 17.8299C2.02935 17.7218 1.98559 17.578 2.0042 17.4353L3.5042 5.93533C3.53669 5.6863 3.74886 5.5 4 5.5H6.5ZM7.5 5C7.5 3.61929 8.61929 2.5 10 2.5C11.3807 2.5 12.5 3.61929 12.5 5V5.5H7.5V5ZM6.5 6.5V7.5C6.5 7.77614 6.72386 8 7 8C7.27614 8 7.5 7.77614 7.5 7.5V6.5H12.5V7.5C12.5 7.77614 12.7239 8 13 8C13.2761 8 13.5 7.77614 13.5 7.5V6.5H15.561L16.9306 17H3.06946L4.43902 6.5H6.5Z" fill="#262626"/>
</svg>
