<svg width="20" height="20" viewBox="0 0 20 20" fill="none" xmlns="http://www.w3.org/2000/svg">
<path d="M3.35355 2.64645C3.15829 2.45118 2.84171 2.45118 2.64645 2.64645C2.45118 2.84171 2.45118 3.15829 2.64645 3.35355L9.29289 10L2.64645 16.6464C2.45118 16.8417 2.45118 17.1583 2.64645 17.3536C2.84171 17.5488 3.15829 17.5488 3.35355 17.3536L10 10.7071L16.6464 17.3536C16.8417 17.5488 17.1583 17.5488 17.3536 17.3536C17.5488 17.1583 17.5488 16.8417 17.3536 16.6464L10.7071 10L17.3536 3.35355C17.5488 3.15829 17.5488 2.84171 17.3536 2.64645C17.1583 2.45118 16.8417 2.45118 16.6464 2.64645L10 9.29289L3.35355 2.64645Z" fill="#262626"/>
</svg>
